# xmcd CD database file
#
# Track frame offsets:
#	150
#	9697
#	33400
#	57172
#	88607
#	113477
#	129015
#	158497
#	171117
#
# Disc length: 2461 seconds
#
# Revision: 0
# Processed by: cddbd v1.4PL0 Copyright (c) Steve Scherf et al.
# Submitted via: CDex 1.51
#
DISCID=5d099b09
DTITLE=Lightnin' Hopkins - Right on that shore
DYEAR=1900
DGENRE=Blues
TTITLE0=Coffee House Blues
TTITLE1=Early In The Morning
TTITLE2=I've Been 'Buked And Scorned
TTITLE3=Big Black Cadillac
TTITLE4=Brand New Car
TTITLE5=Ball Of Twine
TTITLE6=Everybody's Blue
TTITLE7=Right On That Shore
TTITLE8=Stool Pidgeon Blues
EXTD=
EXTT0=
EXTT1=
EXTT2=
EXTT3=
EXTT4=
EXTT5=
EXTT6=
EXTT7=
EXTT8=
PLAYORDER=
